<?xml version="1.0" encoding="UTF-8"?>
<svg version="1.1" xmlns="http://www.w3.org/2000/svg" width="1080" height="1080">
<path d="M0 0 C53.46 0 106.92 0 162 0 C162 17.82 162 35.64 162 54 C153.09 54 144.18 54 135 54 C135 62.91 135 71.82 135 81 C152.82 81 170.64 81 189 81 C189 89.91 189 98.82 189 108 C215.73 108 242.46 108 270 108 C270 116.91 270 125.82 270 135 C287.82 135 305.64 135 324 135 C324 143.91 324 152.82 324 162 C332.91 162 341.82 162 351 162 C351 170.91 351 179.82 351 189 C359.91 189 368.82 189 378 189 C378 197.91 378 206.82 378 216 C386.91 216 395.82 216 405 216 C405 224.91 405 233.82 405 243 C413.91 243 422.82 243 432 243 C432 251.91 432 260.82 432 270 C440.91 270 449.82 270 459 270 C459 287.82 459 305.64 459 324 C467.91 324 476.82 324 486 324 C486 350.73 486 377.46 486 405 C494.91 405 503.82 405 513 405 C513 476.28 513 547.56 513 621 C504.09 621 495.18 621 486 621 C486 647.73 486 674.46 486 702 C477.09 702 468.18 702 459 702 C459 719.82 459 737.64 459 756 C450.09 756 441.18 756 432 756 C432 764.91 432 773.82 432 783 C423.09 783 414.18 783 405 783 C405 791.91 405 800.82 405 810 C396.09 810 387.18 810 378 810 C378 818.91 378 827.82 378 837 C369.09 837 360.18 837 351 837 C351 845.91 351 854.82 351 864 C342.09 864 333.18 864 324 864 C324 872.91 324 881.82 324 891 C306.18 891 288.36 891 270 891 C270 899.91 270 908.82 270 918 C243.27 918 216.54 918 189 918 C189 926.91 189 935.82 189 945 C117.72 945 46.44 945 -27 945 C-27 936.09 -27 927.18 -27 918 C-53.73 918 -80.46 918 -108 918 C-108 909.09 -108 900.18 -108 891 C-125.82 891 -143.64 891 -162 891 C-162 882.09 -162 873.18 -162 864 C-170.91 864 -179.82 864 -189 864 C-189 855.09 -189 846.18 -189 837 C-197.91 837 -206.82 837 -216 837 C-216 828.09 -216 819.18 -216 810 C-224.91 810 -233.82 810 -243 810 C-243 801.09 -243 792.18 -243 783 C-251.91 783 -260.82 783 -270 783 C-270 774.09 -270 765.18 -270 756 C-278.91 756 -287.82 756 -297 756 C-297 738.18 -297 720.36 -297 702 C-305.91 702 -314.82 702 -324 702 C-324 675.27 -324 648.54 -324 621 C-332.91 621 -341.82 621 -351 621 C-351 549.72 -351 478.44 -351 405 C-342.09 405 -333.18 405 -324 405 C-324 378.27 -324 351.54 -324 324 C-315.09 324 -306.18 324 -297 324 C-297 306.18 -297 288.36 -297 270 C-288.09 270 -279.18 270 -270 270 C-270 261.09 -270 252.18 -270 243 C-261.09 243 -252.18 243 -243 243 C-243 234.09 -243 225.18 -243 216 C-234.09 216 -225.18 216 -216 216 C-216 207.09 -216 198.18 -216 189 C-207.09 189 -198.18 189 -189 189 C-189 180.09 -189 171.18 -189 162 C-180.09 162 -171.18 162 -162 162 C-162 153.09 -162 144.18 -162 135 C-144.18 135 -126.36 135 -108 135 C-108 126.09 -108 117.18 -108 108 C-81.27 108 -54.54 108 -27 108 C-27 99.09 -27 90.18 -27 81 C-9.18 81 8.64 81 27 81 C27 72.09 27 63.18 27 54 C18.09 54 9.18 54 0 54 C0 36.18 0 18.36 0 0 Z M-27 135 C-27 143.91 -27 152.82 -27 162 C-53.73 162 -80.46 162 -108 162 C-108 170.91 -108 179.82 -108 189 C-116.91 189 -125.82 189 -135 189 C-135 197.91 -135 206.82 -135 216 C-152.82 216 -170.64 216 -189 216 C-189 224.91 -189 233.82 -189 243 C-197.91 243 -206.82 243 -216 243 C-216 260.82 -216 278.64 -216 297 C-224.91 297 -233.82 297 -243 297 C-243 305.91 -243 314.82 -243 324 C-251.91 324 -260.82 324 -270 324 C-270 350.73 -270 377.46 -270 405 C-278.91 405 -287.82 405 -297 405 C-297 476.28 -297 547.56 -297 621 C-288.09 621 -279.18 621 -270 621 C-270 647.73 -270 674.46 -270 702 C-261.09 702 -252.18 702 -243 702 C-243 710.91 -243 719.82 -243 729 C-234.09 729 -225.18 729 -216 729 C-216 746.82 -216 764.64 -216 783 C-207.09 783 -198.18 783 -189 783 C-189 791.91 -189 800.82 -189 810 C-171.18 810 -153.36 810 -135 810 C-135 818.91 -135 827.82 -135 837 C-126.09 837 -117.18 837 -108 837 C-108 845.91 -108 854.82 -108 864 C-81.27 864 -54.54 864 -27 864 C-27 872.91 -27 881.82 -27 891 C44.28 891 115.56 891 189 891 C189 882.09 189 873.18 189 864 C215.73 864 242.46 864 270 864 C270 855.09 270 846.18 270 837 C278.91 837 287.82 837 297 837 C297 828.09 297 819.18 297 810 C314.82 810 332.64 810 351 810 C351 801.09 351 792.18 351 783 C359.91 783 368.82 783 378 783 C378 765.18 378 747.36 378 729 C386.91 729 395.82 729 405 729 C405 720.09 405 711.18 405 702 C413.91 702 422.82 702 432 702 C432 675.27 432 648.54 432 621 C440.91 621 449.82 621 459 621 C459 549.72 459 478.44 459 405 C450.09 405 441.18 405 432 405 C432 378.27 432 351.54 432 324 C423.09 324 414.18 324 405 324 C405 315.09 405 306.18 405 297 C396.09 297 387.18 297 378 297 C378 279.18 378 261.36 378 243 C369.09 243 360.18 243 351 243 C351 234.09 351 225.18 351 216 C333.18 216 315.36 216 297 216 C297 207.09 297 198.18 297 189 C288.09 189 279.18 189 270 189 C270 180.09 270 171.18 270 162 C243.27 162 216.54 162 189 162 C189 153.09 189 144.18 189 135 C117.72 135 46.44 135 -27 135 Z " fill="#000000" transform="translate(459,135)"/>
<path d="M0 0 C8.91 0 17.82 0 27 0 C27 8.91 27 17.82 27 27 C35.91 27 44.82 27 54 27 C54 44.82 54 62.64 54 81 C45.09 81 36.18 81 27 81 C27 98.82 27 116.64 27 135 C9.18 135 -8.64 135 -27 135 C-27 161.73 -27 188.46 -27 216 C-35.91 216 -44.82 216 -54 216 C-54 260.55 -54 305.1 -54 351 C-62.91 351 -71.82 351 -81 351 C-81 359.91 -81 368.82 -81 378 C-89.91 378 -98.82 378 -108 378 C-108 395.82 -108 413.64 -108 432 C-116.91 432 -125.82 432 -135 432 C-135 449.82 -135 467.64 -135 486 C-143.91 486 -152.82 486 -162 486 C-162 477.09 -162 468.18 -162 459 C-170.91 459 -179.82 459 -189 459 C-189 467.91 -189 476.82 -189 486 C-197.91 486 -206.82 486 -216 486 C-216 468.18 -216 450.36 -216 432 C-207.09 432 -198.18 432 -189 432 C-189 414.18 -189 396.36 -189 378 C-180.09 378 -171.18 378 -162 378 C-162 351.27 -162 324.54 -162 297 C-153.09 297 -144.18 297 -135 297 C-135 288.09 -135 279.18 -135 270 C-126.09 270 -117.18 270 -108 270 C-108 252.18 -108 234.36 -108 216 C-99.09 216 -90.18 216 -81 216 C-81 198.18 -81 180.36 -81 162 C-72.09 162 -63.18 162 -54 162 C-54 144.18 -54 126.36 -54 108 C-45.09 108 -36.18 108 -27 108 C-27 81.27 -27 54.54 -27 27 C-18.09 27 -9.18 27 0 27 C0 18.09 0 9.18 0 0 Z " fill="#FFFFFF" transform="translate(648,324)"/>
<path d="M0 0 C26.73 0 53.46 0 81 0 C81 26.73 81 53.46 81 81 C72.09 81 63.18 81 54 81 C54 98.82 54 116.64 54 135 C45.09 135 36.18 135 27 135 C27 152.82 27 170.64 27 189 C18.09 189 9.18 189 0 189 C0 180.09 0 171.18 0 162 C-8.91 162 -17.82 162 -27 162 C-27 170.91 -27 179.82 -27 189 C-35.91 189 -44.82 189 -54 189 C-54 171.18 -54 153.36 -54 135 C-45.09 135 -36.18 135 -27 135 C-27 117.18 -27 99.36 -27 81 C-18.09 81 -9.18 81 0 81 C0 54.27 0 27.54 0 0 Z " fill="#FFFFFF" transform="translate(486,621)"/>
<path d="M0 0 C53.46 0 106.92 0 162 0 C162 17.82 162 35.64 162 54 C108.54 54 55.08 54 0 54 C0 36.18 0 18.36 0 0 Z " fill="#EF4444" transform="translate(459,135)"/>
<path d="M0 0 C17.82 0 35.64 0 54 0 C54 44.55 54 89.1 54 135 C36.18 135 18.36 135 0 135 C0 90.45 0 45.9 0 0 Z " fill="#000000" transform="translate(513,864)"/>
<path d="M0 0 C44.55 0 89.1 0 135 0 C135 17.82 135 35.64 135 54 C90.45 54 45.9 54 0 54 C0 36.18 0 18.36 0 0 Z " fill="#000000" transform="translate(756,621)"/>
<path d="M0 0 C44.55 0 89.1 0 135 0 C135 17.82 135 35.64 135 54 C90.45 54 45.9 54 0 54 C0 36.18 0 18.36 0 0 Z " fill="#000000" transform="translate(189,621)"/>
<path d="M0 0 C17.82 0 35.64 0 54 0 C54 44.55 54 89.1 54 135 C36.18 135 18.36 135 0 135 C0 90.45 0 45.9 0 0 Z " fill="#000000" transform="translate(513,297)"/>
<path d="M0 0 C8.91 0 17.82 0 27 0 C27 17.82 27 35.64 27 54 C35.91 54 44.82 54 54 54 C54 62.91 54 71.82 54 81 C62.91 81 71.82 81 81 81 C81 98.82 81 116.64 81 135 C89.91 135 98.82 135 108 135 C108 152.82 108 170.64 108 189 C99.09 189 90.18 189 81 189 C81 180.09 81 171.18 81 162 C72.09 162 63.18 162 54 162 C54 144.18 54 126.36 54 108 C45.09 108 36.18 108 27 108 C27 99.09 27 90.18 27 81 C18.09 81 9.18 81 0 81 C0 54.27 0 27.54 0 0 Z " fill="#FFA209" transform="translate(243,27)"/>
<path d="M0 0 C17.82 0 35.64 0 54 0 C54 17.82 54 35.64 54 54 C62.91 54 71.82 54 81 54 C81 71.82 81 89.64 81 108 C63.18 108 45.36 108 27 108 C27 90.18 27 72.36 27 54 C18.09 54 9.18 54 0 54 C0 36.18 0 18.36 0 0 Z " fill="#000000" transform="translate(621,837)"/>
<path d="M0 0 C17.82 0 35.64 0 54 0 C54 17.82 54 35.64 54 54 C45.09 54 36.18 54 27 54 C27 71.82 27 89.64 27 108 C9.18 108 -8.64 108 -27 108 C-27 90.18 -27 72.36 -27 54 C-18.09 54 -9.18 54 0 54 C0 36.18 0 18.36 0 0 Z " fill="#000000" transform="translate(405,837)"/>
<path d="M0 0 C17.82 0 35.64 0 54 0 C54 8.91 54 17.82 54 27 C71.82 27 89.64 27 108 27 C108 44.82 108 62.64 108 81 C90.18 81 72.36 81 54 81 C54 72.09 54 63.18 54 54 C36.18 54 18.36 54 0 54 C0 36.18 0 18.36 0 0 Z " fill="#000000" transform="translate(729,729)"/>
<path d="M0 0 C17.82 0 35.64 0 54 0 C54 17.82 54 35.64 54 54 C36.18 54 18.36 54 0 54 C0 62.91 0 71.82 0 81 C-17.82 81 -35.64 81 -54 81 C-54 63.18 -54 45.36 -54 27 C-36.18 27 -18.36 27 0 27 C0 18.09 0 9.18 0 0 Z " fill="#000000" transform="translate(297,729)"/>
<path d="M0 0 C17.82 0 35.64 0 54 0 C54 17.82 54 35.64 54 54 C36.18 54 18.36 54 0 54 C0 62.91 0 71.82 0 81 C-17.82 81 -35.64 81 -54 81 C-54 63.18 -54 45.36 -54 27 C-36.18 27 -18.36 27 0 27 C0 18.09 0 9.18 0 0 Z " fill="#000000" transform="translate(783,486)"/>
<path d="M0 0 C17.82 0 35.64 0 54 0 C54 8.91 54 17.82 54 27 C71.82 27 89.64 27 108 27 C108 44.82 108 62.64 108 81 C90.18 81 72.36 81 54 81 C54 72.09 54 63.18 54 54 C36.18 54 18.36 54 0 54 C0 36.18 0 18.36 0 0 Z " fill="#000000" transform="translate(243,486)"/>
<path d="M0 0 C17.82 0 35.64 0 54 0 C54 17.82 54 35.64 54 54 C62.91 54 71.82 54 81 54 C81 71.82 81 89.64 81 108 C63.18 108 45.36 108 27 108 C27 90.18 27 72.36 27 54 C18.09 54 9.18 54 0 54 C0 36.18 0 18.36 0 0 Z " fill="#000000" transform="translate(378,351)"/>
<path d="M0 0 C8.91 0 17.82 0 27 0 C27 26.73 27 53.46 27 81 C35.91 81 44.82 81 54 81 C54 116.64 54 152.28 54 189 C45.09 189 36.18 189 27 189 C27 162.27 27 135.54 27 108 C18.09 108 9.18 108 0 108 C0 72.36 0 36.72 0 0 Z " fill="#FFA209" transform="translate(81,0)"/>
<path d="M0 0 C17.82 0 35.64 0 54 0 C54 8.91 54 17.82 54 27 C45.09 27 36.18 27 27 27 C27 35.91 27 44.82 27 54 C18.09 54 9.18 54 0 54 C0 62.91 0 71.82 0 81 C-17.82 81 -35.64 81 -54 81 C-54 72.09 -54 63.18 -54 54 C-45.09 54 -36.18 54 -27 54 C-27 45.09 -27 36.18 -27 27 C-18.09 27 -9.18 27 0 27 C0 18.09 0 9.18 0 0 Z " fill="#000000" transform="translate(702,27)"/>
<path d="M0 0 C17.82 0 35.64 0 54 0 C54 8.91 54 17.82 54 27 C62.91 27 71.82 27 81 27 C81 35.91 81 44.82 81 54 C89.91 54 98.82 54 108 54 C108 62.91 108 71.82 108 81 C90.18 81 72.36 81 54 81 C54 72.09 54 63.18 54 54 C45.09 54 36.18 54 27 54 C27 45.09 27 36.18 27 27 C18.09 27 9.18 27 0 27 C0 18.09 0 9.18 0 0 Z " fill="#000000" transform="translate(324,27)"/>
<path d="M0 0 C8.91 0 17.82 0 27 0 C27 17.82 27 35.64 27 54 C18.09 54 9.18 54 0 54 C0 71.82 0 89.64 0 108 C-8.91 108 -17.82 108 -27 108 C-27 81.27 -27 54.54 -27 27 C-18.09 27 -9.18 27 0 27 C0 18.09 0 9.18 0 0 Z " fill="#000000" transform="translate(675,351)"/>
<path d="M0 0 C17.82 0 35.64 0 54 0 C54 8.91 54 17.82 54 27 C45.09 27 36.18 27 27 27 C27 35.91 27 44.82 27 54 C18.09 54 9.18 54 0 54 C0 62.91 0 71.82 0 81 C-8.91 81 -17.82 81 -27 81 C-27 63.18 -27 45.36 -27 27 C-18.09 27 -9.18 27 0 27 C0 18.09 0 9.18 0 0 Z " fill="#000000" transform="translate(621,0)"/>
<path d="M0 0 C17.82 0 35.64 0 54 0 C54 8.91 54 17.82 54 27 C62.91 27 71.82 27 81 27 C81 44.82 81 62.64 81 81 C72.09 81 63.18 81 54 81 C54 72.09 54 63.18 54 54 C45.09 54 36.18 54 27 54 C27 45.09 27 36.18 27 27 C18.09 27 9.18 27 0 27 C0 18.09 0 9.18 0 0 Z " fill="#000000" transform="translate(405,0)"/>
<path d="M0 0 C17.82 0 35.64 0 54 0 C54 17.82 54 35.64 54 54 C36.18 54 18.36 54 0 54 C0 36.18 0 18.36 0 0 Z " fill="#545454" transform="translate(513,621)"/>
<path d="M0 0 C8.91 0 17.82 0 27 0 C27 17.82 27 35.64 27 54 C35.91 54 44.82 54 54 54 C54 62.91 54 71.82 54 81 C36.18 81 18.36 81 0 81 C0 54.27 0 27.54 0 0 Z " fill="#FFA209" transform="translate(162,243)"/>
<path d="M0 0 C17.82 0 35.64 0 54 0 C54 8.91 54 17.82 54 27 C36.18 27 18.36 27 0 27 C0 18.09 0 9.18 0 0 Z " fill="#AEAEAE" transform="translate(513,675)"/>
<path d="M0 0 C8.91 0 17.82 0 27 0 C27 17.82 27 35.64 27 54 C18.09 54 9.18 54 0 54 C0 36.18 0 18.36 0 0 Z " fill="#AEAEAE" transform="translate(567,621)"/>
<path d="M0 0 C8.91 0 17.82 0 27 0 C27 17.82 27 35.64 27 54 C18.09 54 9.18 54 0 54 C0 36.18 0 18.36 0 0 Z " fill="#AEAEAE" transform="translate(486,621)"/>
<path d="M0 0 C17.82 0 35.64 0 54 0 C54 8.91 54 17.82 54 27 C36.18 27 18.36 27 0 27 C0 18.09 0 9.18 0 0 Z " fill="#AEAEAE" transform="translate(513,594)"/>
<path d="M0 0 C8.91 0 17.82 0 27 0 C27 17.82 27 35.64 27 54 C18.09 54 9.18 54 0 54 C0 36.18 0 18.36 0 0 Z " fill="#FFA209" transform="translate(135,189)"/>
<path d="M0 0 C8.91 0 17.82 0 27 0 C27 8.91 27 17.82 27 27 C18.09 27 9.18 27 0 27 C0 18.09 0 9.18 0 0 Z " fill="#FFA209" transform="translate(216,0)"/>
</svg>
