<?xml version="1.0" encoding="UTF-8"?>
<svg version="1.1" xmlns="http://www.w3.org/2000/svg" width="1080" height="1080">
<path d="M0 0 C53.46 0 106.92 0 162 0 C162 17.82 162 35.64 162 54 C153.09 54 144.18 54 135 54 C135 62.91 135 71.82 135 81 C126.09 81 117.18 81 108 81 C108 107.73 108 134.46 108 162 C134.73 162 161.46 162 189 162 C189 170.91 189 179.82 189 189 C215.73 189 242.46 189 270 189 C270 197.91 270 206.82 270 216 C287.82 216 305.64 216 324 216 C324 224.91 324 233.82 324 243 C332.91 243 341.82 243 351 243 C351 251.91 351 260.82 351 270 C359.91 270 368.82 270 378 270 C378 278.91 378 287.82 378 297 C386.91 297 395.82 297 405 297 C405 305.91 405 314.82 405 324 C413.91 324 422.82 324 432 324 C432 332.91 432 341.82 432 351 C440.91 351 449.82 351 459 351 C459 368.82 459 386.64 459 405 C467.91 405 476.82 405 486 405 C486 431.73 486 458.46 486 486 C494.91 486 503.82 486 513 486 C513 557.28 513 628.56 513 702 C504.09 702 495.18 702 486 702 C486 728.73 486 755.46 486 783 C477.09 783 468.18 783 459 783 C459 800.82 459 818.64 459 837 C450.09 837 441.18 837 432 837 C432 845.91 432 854.82 432 864 C423.09 864 414.18 864 405 864 C405 872.91 405 881.82 405 891 C396.09 891 387.18 891 378 891 C378 899.91 378 908.82 378 918 C369.09 918 360.18 918 351 918 C351 926.91 351 935.82 351 945 C342.09 945 333.18 945 324 945 C324 953.91 324 962.82 324 972 C306.18 972 288.36 972 270 972 C270 980.91 270 989.82 270 999 C243.27 999 216.54 999 189 999 C189 1007.91 189 1016.82 189 1026 C117.72 1026 46.44 1026 -27 1026 C-27 1017.09 -27 1008.18 -27 999 C-53.73 999 -80.46 999 -108 999 C-108 990.09 -108 981.18 -108 972 C-125.82 972 -143.64 972 -162 972 C-162 963.09 -162 954.18 -162 945 C-170.91 945 -179.82 945 -189 945 C-189 936.09 -189 927.18 -189 918 C-197.91 918 -206.82 918 -216 918 C-216 909.09 -216 900.18 -216 891 C-224.91 891 -233.82 891 -243 891 C-243 882.09 -243 873.18 -243 864 C-251.91 864 -260.82 864 -270 864 C-270 855.09 -270 846.18 -270 837 C-278.91 837 -287.82 837 -297 837 C-297 819.18 -297 801.36 -297 783 C-305.91 783 -314.82 783 -324 783 C-324 756.27 -324 729.54 -324 702 C-332.91 702 -341.82 702 -351 702 C-351 630.72 -351 559.44 -351 486 C-342.09 486 -333.18 486 -324 486 C-324 459.27 -324 432.54 -324 405 C-315.09 405 -306.18 405 -297 405 C-297 387.18 -297 369.36 -297 351 C-288.09 351 -279.18 351 -270 351 C-270 342.09 -270 333.18 -270 324 C-261.09 324 -252.18 324 -243 324 C-243 315.09 -243 306.18 -243 297 C-234.09 297 -225.18 297 -216 297 C-216 288.09 -216 279.18 -216 270 C-207.09 270 -198.18 270 -189 270 C-189 261.09 -189 252.18 -189 243 C-180.09 243 -171.18 243 -162 243 C-162 234.09 -162 225.18 -162 216 C-144.18 216 -126.36 216 -108 216 C-108 207.09 -108 198.18 -108 189 C-81.27 189 -54.54 189 -27 189 C-27 180.09 -27 171.18 -27 162 C-0.27 162 26.46 162 54 162 C54 135.27 54 108.54 54 81 C45.09 81 36.18 81 27 81 C27 72.09 27 63.18 27 54 C18.09 54 9.18 54 0 54 C0 36.18 0 18.36 0 0 Z M-27 216 C-27 224.91 -27 233.82 -27 243 C-53.73 243 -80.46 243 -108 243 C-108 251.91 -108 260.82 -108 270 C-116.91 270 -125.82 270 -135 270 C-135 278.91 -135 287.82 -135 297 C-152.82 297 -170.64 297 -189 297 C-189 305.91 -189 314.82 -189 324 C-197.91 324 -206.82 324 -216 324 C-216 341.82 -216 359.64 -216 378 C-224.91 378 -233.82 378 -243 378 C-243 386.91 -243 395.82 -243 405 C-251.91 405 -260.82 405 -270 405 C-270 431.73 -270 458.46 -270 486 C-278.91 486 -287.82 486 -297 486 C-297 557.28 -297 628.56 -297 702 C-288.09 702 -279.18 702 -270 702 C-270 728.73 -270 755.46 -270 783 C-261.09 783 -252.18 783 -243 783 C-243 791.91 -243 800.82 -243 810 C-234.09 810 -225.18 810 -216 810 C-216 827.82 -216 845.64 -216 864 C-207.09 864 -198.18 864 -189 864 C-189 872.91 -189 881.82 -189 891 C-171.18 891 -153.36 891 -135 891 C-135 899.91 -135 908.82 -135 918 C-126.09 918 -117.18 918 -108 918 C-108 926.91 -108 935.82 -108 945 C-81.27 945 -54.54 945 -27 945 C-27 953.91 -27 962.82 -27 972 C44.28 972 115.56 972 189 972 C189 963.09 189 954.18 189 945 C215.73 945 242.46 945 270 945 C270 936.09 270 927.18 270 918 C278.91 918 287.82 918 297 918 C297 909.09 297 900.18 297 891 C314.82 891 332.64 891 351 891 C351 882.09 351 873.18 351 864 C359.91 864 368.82 864 378 864 C378 846.18 378 828.36 378 810 C386.91 810 395.82 810 405 810 C405 801.09 405 792.18 405 783 C413.91 783 422.82 783 432 783 C432 756.27 432 729.54 432 702 C440.91 702 449.82 702 459 702 C459 630.72 459 559.44 459 486 C450.09 486 441.18 486 432 486 C432 459.27 432 432.54 432 405 C423.09 405 414.18 405 405 405 C405 396.09 405 387.18 405 378 C396.09 378 387.18 378 378 378 C378 360.18 378 342.36 378 324 C369.09 324 360.18 324 351 324 C351 315.09 351 306.18 351 297 C333.18 297 315.36 297 297 297 C297 288.09 297 279.18 297 270 C288.09 270 279.18 270 270 270 C270 261.09 270 252.18 270 243 C243.27 243 216.54 243 189 243 C189 234.09 189 225.18 189 216 C117.72 216 46.44 216 -27 216 Z " fill="#000000" transform="translate(459,54)"/>
<path d="M0 0 C8.91 0 17.82 0 27 0 C27 8.91 27 17.82 27 27 C35.91 27 44.82 27 54 27 C54 53.73 54 80.46 54 108 C62.91 108 71.82 108 81 108 C81 125.82 81 143.64 81 162 C89.91 162 98.82 162 108 162 C108 179.82 108 197.64 108 216 C116.91 216 125.82 216 135 216 C135 233.82 135 251.64 135 270 C143.91 270 152.82 270 162 270 C162 278.91 162 287.82 162 297 C170.91 297 179.82 297 189 297 C189 323.73 189 350.46 189 378 C197.91 378 206.82 378 216 378 C216 395.82 216 413.64 216 432 C224.91 432 233.82 432 243 432 C243 449.82 243 467.64 243 486 C234.09 486 225.18 486 216 486 C216 477.09 216 468.18 216 459 C207.09 459 198.18 459 189 459 C189 467.91 189 476.82 189 486 C180.09 486 171.18 486 162 486 C162 468.18 162 450.36 162 432 C153.09 432 144.18 432 135 432 C135 414.18 135 396.36 135 378 C126.09 378 117.18 378 108 378 C108 369.09 108 360.18 108 351 C99.09 351 90.18 351 81 351 C81 306.45 81 261.9 81 216 C72.09 216 63.18 216 54 216 C54 189.27 54 162.54 54 135 C36.18 135 18.36 135 0 135 C0 117.18 0 99.36 0 81 C-8.91 81 -17.82 81 -27 81 C-27 63.18 -27 45.36 -27 27 C-18.09 27 -9.18 27 0 27 C0 18.09 0 9.18 0 0 Z " fill="#FFFFFF" transform="translate(405,324)"/>
<path d="M0 0 C26.73 0 53.46 0 81 0 C81 26.73 81 53.46 81 81 C89.91 81 98.82 81 108 81 C108 98.82 108 116.64 108 135 C116.91 135 125.82 135 135 135 C135 152.82 135 170.64 135 189 C126.09 189 117.18 189 108 189 C108 180.09 108 171.18 108 162 C99.09 162 90.18 162 81 162 C81 170.91 81 179.82 81 189 C72.09 189 63.18 189 54 189 C54 171.18 54 153.36 54 135 C45.09 135 36.18 135 27 135 C27 117.18 27 99.36 27 81 C18.09 81 9.18 81 0 81 C0 54.27 0 27.54 0 0 Z " fill="#FFFFFF" transform="translate(513,621)"/>
<path d="M0 0 C53.46 0 106.92 0 162 0 C162 17.82 162 35.64 162 54 C108.54 54 55.08 54 0 54 C0 36.18 0 18.36 0 0 Z " fill="#22C55E" transform="translate(459,54)"/>
<path d="M0 0 C17.82 0 35.64 0 54 0 C54 44.55 54 89.1 54 135 C36.18 135 18.36 135 0 135 C0 90.45 0 45.9 0 0 Z " fill="#000000" transform="translate(513,864)"/>
<path d="M0 0 C44.55 0 89.1 0 135 0 C135 17.82 135 35.64 135 54 C90.45 54 45.9 54 0 54 C0 36.18 0 18.36 0 0 Z " fill="#000000" transform="translate(756,621)"/>
<path d="M0 0 C44.55 0 89.1 0 135 0 C135 17.82 135 35.64 135 54 C90.45 54 45.9 54 0 54 C0 36.18 0 18.36 0 0 Z " fill="#000000" transform="translate(189,621)"/>
<path d="M0 0 C17.82 0 35.64 0 54 0 C54 44.55 54 89.1 54 135 C36.18 135 18.36 135 0 135 C0 90.45 0 45.9 0 0 Z " fill="#000000" transform="translate(513,297)"/>
<path d="M0 0 C8.91 0 17.82 0 27 0 C27 17.82 27 35.64 27 54 C35.91 54 44.82 54 54 54 C54 62.91 54 71.82 54 81 C62.91 81 71.82 81 81 81 C81 98.82 81 116.64 81 135 C89.91 135 98.82 135 108 135 C108 152.82 108 170.64 108 189 C99.09 189 90.18 189 81 189 C81 180.09 81 171.18 81 162 C72.09 162 63.18 162 54 162 C54 144.18 54 126.36 54 108 C45.09 108 36.18 108 27 108 C27 99.09 27 90.18 27 81 C18.09 81 9.18 81 0 81 C0 54.27 0 27.54 0 0 Z " fill="#FFA209" transform="translate(243,27)"/>
<path d="M0 0 C17.82 0 35.64 0 54 0 C54 17.82 54 35.64 54 54 C62.91 54 71.82 54 81 54 C81 71.82 81 89.64 81 108 C63.18 108 45.36 108 27 108 C27 90.18 27 72.36 27 54 C18.09 54 9.18 54 0 54 C0 36.18 0 18.36 0 0 Z " fill="#000000" transform="translate(621,837)"/>
<path d="M0 0 C17.82 0 35.64 0 54 0 C54 17.82 54 35.64 54 54 C45.09 54 36.18 54 27 54 C27 71.82 27 89.64 27 108 C9.18 108 -8.64 108 -27 108 C-27 90.18 -27 72.36 -27 54 C-18.09 54 -9.18 54 0 54 C0 36.18 0 18.36 0 0 Z " fill="#000000" transform="translate(405,837)"/>
<path d="M0 0 C17.82 0 35.64 0 54 0 C54 8.91 54 17.82 54 27 C71.82 27 89.64 27 108 27 C108 44.82 108 62.64 108 81 C90.18 81 72.36 81 54 81 C54 72.09 54 63.18 54 54 C36.18 54 18.36 54 0 54 C0 36.18 0 18.36 0 0 Z " fill="#000000" transform="translate(729,729)"/>
<path d="M0 0 C17.82 0 35.64 0 54 0 C54 17.82 54 35.64 54 54 C36.18 54 18.36 54 0 54 C0 62.91 0 71.82 0 81 C-17.82 81 -35.64 81 -54 81 C-54 63.18 -54 45.36 -54 27 C-36.18 27 -18.36 27 0 27 C0 18.09 0 9.18 0 0 Z " fill="#000000" transform="translate(297,729)"/>
<path d="M0 0 C17.82 0 35.64 0 54 0 C54 17.82 54 35.64 54 54 C36.18 54 18.36 54 0 54 C0 62.91 0 71.82 0 81 C-17.82 81 -35.64 81 -54 81 C-54 63.18 -54 45.36 -54 27 C-36.18 27 -18.36 27 0 27 C0 18.09 0 9.18 0 0 Z " fill="#000000" transform="translate(783,486)"/>
<path d="M0 0 C17.82 0 35.64 0 54 0 C54 8.91 54 17.82 54 27 C71.82 27 89.64 27 108 27 C108 44.82 108 62.64 108 81 C90.18 81 72.36 81 54 81 C54 72.09 54 63.18 54 54 C36.18 54 18.36 54 0 54 C0 36.18 0 18.36 0 0 Z " fill="#000000" transform="translate(243,486)"/>
<path d="M0 0 C17.82 0 35.64 0 54 0 C54 17.82 54 35.64 54 54 C45.09 54 36.18 54 27 54 C27 71.82 27 89.64 27 108 C9.18 108 -8.64 108 -27 108 C-27 90.18 -27 72.36 -27 54 C-18.09 54 -9.18 54 0 54 C0 36.18 0 18.36 0 0 Z " fill="#000000" transform="translate(648,351)"/>
<path d="M0 0 C8.91 0 17.82 0 27 0 C27 26.73 27 53.46 27 81 C35.91 81 44.82 81 54 81 C54 116.64 54 152.28 54 189 C45.09 189 36.18 189 27 189 C27 162.27 27 135.54 27 108 C18.09 108 9.18 108 0 108 C0 72.36 0 36.72 0 0 Z " fill="#FFA209" transform="translate(81,0)"/>
<path d="M0 0 C8.91 0 17.82 0 27 0 C27 8.91 27 17.82 27 27 C35.91 27 44.82 27 54 27 C54 53.73 54 80.46 54 108 C45.09 108 36.18 108 27 108 C27 90.18 27 72.36 27 54 C18.09 54 9.18 54 0 54 C0 36.18 0 18.36 0 0 Z " fill="#000000" transform="translate(378,351)"/>
<path d="M0 0 C17.82 0 35.64 0 54 0 C54 17.82 54 35.64 54 54 C36.18 54 18.36 54 0 54 C0 36.18 0 18.36 0 0 Z " fill="#545454" transform="translate(513,621)"/>
<path d="M0 0 C8.91 0 17.82 0 27 0 C27 17.82 27 35.64 27 54 C35.91 54 44.82 54 54 54 C54 62.91 54 71.82 54 81 C36.18 81 18.36 81 0 81 C0 54.27 0 27.54 0 0 Z " fill="#FFA209" transform="translate(162,243)"/>
<path d="M0 0 C17.82 0 35.64 0 54 0 C54 8.91 54 17.82 54 27 C36.18 27 18.36 27 0 27 C0 18.09 0 9.18 0 0 Z " fill="#AEAEAE" transform="translate(513,675)"/>
<path d="M0 0 C8.91 0 17.82 0 27 0 C27 17.82 27 35.64 27 54 C18.09 54 9.18 54 0 54 C0 36.18 0 18.36 0 0 Z " fill="#AEAEAE" transform="translate(567,621)"/>
<path d="M0 0 C8.91 0 17.82 0 27 0 C27 17.82 27 35.64 27 54 C18.09 54 9.18 54 0 54 C0 36.18 0 18.36 0 0 Z " fill="#AEAEAE" transform="translate(486,621)"/>
<path d="M0 0 C17.82 0 35.64 0 54 0 C54 8.91 54 17.82 54 27 C36.18 27 18.36 27 0 27 C0 18.09 0 9.18 0 0 Z " fill="#AEAEAE" transform="translate(513,594)"/>
<path d="M0 0 C8.91 0 17.82 0 27 0 C27 17.82 27 35.64 27 54 C18.09 54 9.18 54 0 54 C0 36.18 0 18.36 0 0 Z " fill="#FFA209" transform="translate(135,189)"/>
<path d="M0 0 C8.91 0 17.82 0 27 0 C27 8.91 27 17.82 27 27 C18.09 27 9.18 27 0 27 C0 18.09 0 9.18 0 0 Z " fill="#FFA209" transform="translate(216,0)"/>
</svg>
